<svg width="22" height="28" viewBox="0 0 22 28" fill="none" xmlns="http://www.w3.org/2000/svg">
<path d="M13.5 1H3.5C2.83696 1 2.20107 1.27198 1.73223 1.7561C1.26339 2.24023 1 2.89684 1 3.5815V24.2335C1 24.9181 1.26339 25.5747 1.73223 26.0588C2.20107 26.543 2.83696 26.815 3.5 26.815H18.5C19.163 26.815 19.7989 26.543 20.2678 26.0588C20.7366 25.5747 21 24.9181 21 24.2335V8.74449L13.5 1Z" stroke="#F2F2F2" stroke-width="2" stroke-linecap="round" stroke-linejoin="round"/>
<path d="M13.4999 1V8.74449H20.9999" stroke="#F2F2F2" stroke-width="2" stroke-linecap="round" stroke-linejoin="round"/>
<path d="M15.9999 15.1984H5.99988" stroke="#F2F2F2" stroke-width="2" stroke-linecap="round" stroke-linejoin="round"/>
<path d="M15.9999 20.3612H5.99988" stroke="#F2F2F2" stroke-width="2" stroke-linecap="round" stroke-linejoin="round"/>
<path d="M8.49988 10.0352H7.24988H5.99988" stroke="#F2F2F2" stroke-width="2" stroke-linecap="round" stroke-linejoin="round"/>
</svg>
