<?xml version="1.0" standalone="no"?>
<!DOCTYPE svg PUBLIC "-//W3C//DTD SVG 20010904//EN"
 "http://www.w3.org/TR/2001/REC-SVG-20010904/DTD/svg10.dtd">
<svg version="1.0" xmlns="http://www.w3.org/2000/svg"
 width="905.000000pt" height="1280.000000pt" viewBox="0 0 905.000000 1280.000000"
 preserveAspectRatio="xMidYMid meet">
<g transform="translate(0.000000,1280.000000) scale(0.100000,-0.100000)"
fill="#000000" stroke="none">
<path d="M4350 10938 c-40 -6 -601 -12 -1440 -16 l-1375 -7 -3 -74 c-2 -41 1
-78 5 -82 4 -4 78 -22 163 -39 422 -84 766 -213 1020 -381 102 -68 310 -265
310 -293 0 -10 -24 -58 -54 -109 -109 -186 -196 -435 -231 -660 -23 -147 -30
-399 -16 -547 46 -483 231 -818 574 -1042 l77 -51 0 -411 c-1 -494 -8 -594
-49 -681 -52 -112 -135 -149 -285 -127 -118 17 -116 18 -116 -22 0 -19 7 -66
15 -104 51 -244 160 -357 367 -380 l63 -7 0 -1040 c0 -950 -2 -1050 -18 -1160
-42 -279 -112 -514 -221 -740 -69 -144 -153 -264 -481 -690 -219 -285 -290
-389 -346 -512 -45 -97 -84 -236 -94 -333 -8 -84 10 -273 36 -375 78 -304 296
-465 633 -465 171 0 280 44 402 165 132 130 184 256 184 451 0 185 -51 326
-157 432 -35 35 -63 68 -63 73 0 16 121 91 234 145 331 158 745 250 1598 354
193 23 299 53 384 109 102 65 172 172 200 300 18 88 18 273 -1 369 -33 165
-129 296 -249 341 -121 45 -255 51 -358 16 -53 -19 -141 -92 -164 -137 -9 -18
-22 -28 -32 -26 -20 4 -66 92 -92 178 -52 172 -53 190 -57 919 -3 429 -1 687
5 693 6 6 26 -15 55 -60 118 -182 284 -284 509 -312 324 -40 598 132 759 474
83 178 116 361 106 590 -13 274 -79 459 -211 587 -25 24 -46 49 -46 54 0 6 57
37 127 70 571 268 941 682 1048 1170 10 44 22 85 26 91 5 6 40 14 77 16 215
16 327 177 320 460 l-3 111 -54 13 c-29 8 -65 23 -80 33 -40 28 -76 104 -100
206 -100 428 -147 591 -238 820 -311 789 -809 1291 -1508 1520 -147 49 -271
77 -460 107 -150 23 -584 33 -695 16z m495 -58 c589 -55 1072 -273 1474 -664
68 -67 158 -165 201 -218 275 -341 486 -789 609 -1294 65 -264 71 -285 101
-349 40 -84 91 -139 155 -170 l55 -26 0 -64 c0 -185 -78 -323 -204 -360 -27
-8 -82 -15 -122 -15 l-73 0 -6 -37 c-74 -432 -317 -780 -745 -1064 -119 -80
-330 -189 -472 -244 -54 -21 -98 -44 -98 -50 0 -7 30 -30 66 -51 158 -92 253
-265 284 -514 29 -243 -5 -471 -100 -666 -104 -214 -255 -350 -443 -400 -77
-20 -229 -18 -321 6 -270 69 -484 330 -537 654 -17 106 -6 392 19 516 67 320
195 624 428 1010 193 321 295 536 349 742 25 96 50 263 41 277 -3 5 -33 12
-67 15 -105 12 -166 41 -240 115 -52 52 -72 82 -98 144 -17 42 -33 94 -34 115
l-2 37 84 7 c229 19 333 164 372 523 17 153 17 546 0 665 -49 347 -190 669
-388 888 -45 50 -52 54 -113 62 -194 28 -469 -3 -688 -76 -478 -158 -858 -569
-1007 -1087 -58 -202 -78 -358 -79 -604 l-1 -202 -57 -25 c-32 -13 -58 -29
-58 -34 0 -6 23 -27 50 -47 94 -69 156 -173 184 -307 18 -88 21 -194 6 -203
-17 -10 -102 50 -167 118 -173 180 -260 429 -279 797 -27 537 171 1043 570
1458 306 317 631 472 990 472 268 0 463 -84 662 -285 246 -249 396 -604 435
-1028 15 -158 6 -560 -15 -683 -30 -175 -80 -288 -161 -363 -61 -56 -104 -73
-200 -80 l-80 -6 1 -46 c2 -58 47 -150 91 -190 107 -93 277 -114 409 -49 105
51 211 188 229 296 4 21 9 47 11 56 4 12 -5 21 -29 32 -46 19 -65 70 -48 128
14 46 45 63 89 47 40 -14 52 -46 52 -140 0 -263 -111 -442 -312 -505 l-57 -17
-6 -51 c-34 -278 -163 -600 -425 -1066 -134 -239 -154 -277 -208 -395 -69
-153 -119 -290 -155 -425 -27 -105 -30 -130 -31 -280 -1 -140 3 -179 22 -255
43 -171 146 -336 254 -407 92 -61 138 -73 273 -73 115 0 123 1 188 32 124 59
231 194 282 356 107 336 3 698 -233 814 -51 25 -67 28 -162 28 -96 0 -110 -2
-159 -28 -73 -39 -138 -108 -177 -191 -45 -93 -57 -161 -52 -286 7 -172 61
-258 174 -279 89 -17 157 10 190 76 29 58 27 232 -4 290 -29 56 -70 77 -136
70 -40 -3 -55 -11 -78 -36 -15 -17 -31 -48 -34 -70 -17 -105 -47 -70 -41 47 6
99 42 184 108 252 119 122 310 122 429 -1 47 -48 112 -177 131 -259 16 -70 16
-237 0 -315 -29 -134 -125 -289 -218 -352 -71 -48 -124 -63 -222 -63 -274 0
-422 161 -462 501 -37 319 50 582 262 798 127 129 293 239 604 401 259 134
438 263 601 432 194 202 315 425 370 681 23 110 22 111 -47 148 -115 62 -169
173 -168 343 0 112 20 171 68 203 41 28 81 29 112 4 19 -16 24 -29 24 -69 0
-82 -37 -106 -125 -81 -12 3 -15 -10 -15 -76 0 -136 53 -230 156 -274 59 -26
162 -31 228 -11 104 32 206 177 206 293 0 58 0 59 -36 71 -52 18 -88 49 -131
112 -59 88 -93 194 -163 523 -200 936 -811 1589 -1650 1764 -269 56 -487 67
-747 38 -180 -20 -233 -21 -1314 -21 -855 0 -1125 -3 -1122 -12 2 -6 51 -24
109 -39 132 -35 299 -94 418 -149 86 -41 95 -43 124 -31 78 32 128 43 217 48
111 6 111 -4 0 -37 -80 -24 -150 -55 -150 -68 0 -4 30 -23 68 -41 77 -38 174
-105 216 -150 17 -17 34 -31 39 -31 5 0 33 25 63 55 57 58 145 109 207 120 54
11 46 -6 -27 -54 -69 -44 -142 -111 -171 -154 l-17 -27 56 -62 c31 -34 61 -79
68 -99 10 -36 8 -42 -45 -136 -219 -383 -312 -768 -279 -1150 39 -451 210
-801 478 -979 46 -31 84 -60 84 -64 0 -25 -28 -17 -88 23 -255 171 -422 447
-487 807 -23 126 -31 453 -16 591 34 293 114 534 255 768 31 52 56 98 56 104
0 33 -169 210 -285 299 -251 190 -638 344 -1104 438 -58 12 -108 23 -113 26
-4 3 -8 16 -8 29 l0 24 1338 5 c735 3 1371 9 1412 14 107 13 376 14 505 2z
m140 -470 c81 -10 83 -12 200 -185 124 -184 203 -373 253 -604 26 -122 27
-135 26 -441 0 -339 -13 -461 -63 -591 -43 -113 -130 -180 -251 -193 -90 -11
-90 -8 -37 152 70 211 97 356 104 552 8 233 -16 389 -86 565 -142 354 -421
555 -772 555 -117 0 -219 -21 -320 -66 -69 -31 -84 -28 -37 8 237 178 672 288
983 248z m-400 -284 c149 -51 261 -131 357 -257 246 -322 285 -810 104 -1314
-52 -144 -163 -365 -247 -491 -46 -68 -109 -144 -169 -204 -95 -94 -199 -168
-219 -155 -15 9 -14 128 2 147 6 8 28 26 47 38 61 41 171 152 231 233 169 226
297 547 343 859 20 134 21 359 1 471 -41 238 -165 439 -342 557 -98 65 -181
91 -314 97 -202 10 -341 -46 -494 -201 -140 -140 -195 -271 -195 -463 0 -118
14 -182 53 -241 64 -95 217 -135 327 -85 195 88 289 463 153 605 -33 35 -24
45 25 30 139 -42 212 -202 184 -401 -6 -45 -16 -90 -22 -101 -5 -10 -83 -80
-172 -154 -157 -132 -163 -136 -208 -136 -155 0 -291 111 -351 287 -31 88 -33
281 -5 383 66 242 290 460 531 516 98 23 282 13 380 -20z m-75 -162 c197 -56
352 -236 421 -489 29 -104 32 -371 6 -510 -44 -244 -159 -531 -291 -729 -62
-93 -209 -250 -228 -244 -27 9 -15 32 69 121 264 281 392 579 424 987 21 271
-27 456 -159 617 -45 56 -141 119 -210 139 -122 36 -281 12 -348 -51 -32 -31
-43 -35 -89 -35 -97 0 -165 -38 -212 -118 -27 -45 -28 -46 -31 -19 -4 34 36
123 80 177 63 80 197 151 318 170 69 11 179 4 250 -16z m-824 -150 c-54 -108
-72 -171 -86 -289 -16 -150 6 -298 60 -406 50 -99 123 -157 274 -218 23 -10
26 -14 16 -27 -30 -36 -358 -222 -538 -305 -77 -35 -95 -40 -103 -28 -14 22
-10 282 6 423 35 297 130 567 278 785 51 76 127 165 134 158 2 -3 -16 -44 -41
-93z m892 -44 c118 -63 228 -211 267 -360 22 -85 26 -245 6 -245 -15 0 -99
131 -158 248 l-35 69 -74 -73 c-51 -50 -75 -68 -78 -58 -3 8 -10 60 -16 116
-15 157 -59 247 -149 304 -16 10 -22 20 -16 28 6 10 31 12 99 9 80 -3 99 -8
154 -38z m107 -487 c26 -49 61 -106 77 -129 l29 -40 -35 -105 c-38 -113 -62
-253 -75 -424 -8 -108 -8 -111 -56 -187 -71 -116 -176 -243 -200 -243 -19 0
-20 6 -17 105 11 337 75 697 158 884 54 123 59 135 51 142 -4 4 -62 -46 -129
-112 -337 -326 -693 -569 -1065 -725 -57 -23 -103 -45 -103 -49 0 -3 22 -29
49 -57 58 -60 86 -135 102 -268 7 -58 9 -326 6 -750 -3 -568 -6 -670 -20 -728
-48 -203 -145 -297 -304 -297 -72 0 -73 0 -73 -26 0 -35 44 -121 82 -161 75
-78 230 -102 339 -51 68 31 131 94 167 168 26 53 27 61 26 213 0 86 3 157 7
157 20 0 34 -83 34 -200 0 -215 -55 -331 -185 -392 l-70 -33 0 -1006 c0 -596
-4 -1059 -10 -1135 -36 -450 -163 -848 -370 -1164 -87 -131 -175 -250 -370
-495 -244 -307 -326 -439 -381 -615 -31 -96 -33 -263 -5 -355 38 -128 116
-234 201 -275 179 -87 449 -7 564 167 67 101 91 272 55 393 -36 123 -156 179
-288 134 -104 -36 -203 -178 -213 -308 -3 -35 -1 -66 4 -69 5 -3 26 14 47 38
67 80 116 52 116 -66 0 -52 -5 -73 -23 -100 -32 -49 -81 -71 -140 -65 -103 11
-148 78 -155 231 -8 194 41 320 182 461 344 343 1080 606 1971 704 288 31 443
53 511 70 142 36 256 114 309 211 28 51 30 60 30 169 0 110 -1 118 -33 183
-54 109 -140 157 -280 157 -64 0 -87 -5 -137 -29 -89 -42 -142 -111 -147 -192
-3 -42 -2 -44 22 -41 92 11 140 7 160 -14 29 -29 37 -87 15 -120 -52 -79 -266
-70 -398 17 -123 81 -217 249 -261 464 -46 227 -48 290 -53 1491 l-5 1141 -54
22 c-32 14 -67 38 -87 61 -43 51 -112 192 -126 258 -15 74 -14 179 4 239 14
49 39 82 51 70 3 -3 -2 -49 -11 -102 -40 -219 22 -401 153 -452 59 -22 174
-23 217 0 67 34 95 84 102 182 l6 74 -39 7 c-100 18 -156 81 -190 216 -13 52
-17 150 -21 545 -3 265 -3 492 0 505 4 15 22 31 50 45 24 11 73 44 111 72 37
28 71 51 77 51 5 0 9 -238 9 -622 0 -675 3 -713 53 -786 l28 -39 -25 -69
c-126 -354 -157 -737 -81 -999 l25 -85 0 -679 c0 -380 5 -734 10 -806 21 -252
73 -444 153 -565 23 -35 47 -65 53 -67 5 -2 21 22 33 52 31 75 107 156 173
186 74 33 215 33 303 -1 122 -47 202 -157 231 -318 49 -277 -32 -503 -214
-600 -87 -46 -145 -59 -417 -92 -808 -98 -1340 -235 -1670 -431 -78 -46 -175
-123 -175 -139 0 -4 14 -13 32 -21 85 -35 201 -205 233 -340 58 -250 -63 -508
-293 -622 l-85 -42 -136 0 c-115 0 -146 4 -201 23 -137 48 -247 147 -317 286
-51 101 -74 201 -80 351 -5 112 -3 142 15 214 41 162 126 323 265 505 242 316
433 574 497 671 139 210 267 513 319 757 57 266 55 203 58 1404 l4 1112 -88 4
c-62 3 -104 11 -140 27 -63 28 -136 103 -165 169 -27 61 -47 137 -39 149 3 5
51 9 106 9 85 -1 106 2 141 21 74 39 126 114 160 228 16 55 18 124 21 755 3
603 2 704 -12 765 -22 99 -63 180 -125 248 -29 32 -51 59 -49 61 2 2 66 31
143 65 368 163 718 400 1073 729 78 73 144 136 148 142 13 21 24 8 70 -77z
m160 -321 c-21 -127 -49 -222 -66 -222 -5 0 -9 9 -9 19 0 36 41 235 56 271 23
55 33 20 19 -68z m185 -757 c40 -126 143 -254 250 -310 19 -10 62 -26 95 -36
l60 -17 -3 -40 c-4 -66 -50 -228 -99 -352 -63 -159 -151 -329 -294 -570 -67
-113 -156 -270 -197 -350 -41 -80 -80 -145 -86 -145 -6 0 -18 14 -26 30 -13
26 -15 128 -18 721 l-3 690 52 65 c59 72 145 203 179 270 33 64 61 102 70 92
4 -4 13 -26 20 -48z m-949 -2065 c10 -6 19 -20 19 -30 0 -19 -8 -20 -165 -20
-136 0 -165 2 -165 14 0 8 7 22 16 30 12 13 41 16 145 16 72 0 139 -5 150 -10z
m74 -250 l0 -25 -216 -3 c-194 -2 -217 -1 -223 14 -16 41 6 45 228 42 l211 -3
0 -25z m0 -240 l0 -25 -211 -3 c-178 -2 -213 0 -224 13 -7 8 -10 22 -6 30 5
13 35 15 223 13 l218 -3 0 -25z m3 -224 c2 -10 -2 -22 -10 -27 -7 -5 -104 -9
-214 -9 -166 0 -204 3 -214 15 -7 8 -10 22 -6 30 5 13 35 15 223 13 204 -3
218 -4 221 -22z m-14 -212 c9 -3 16 -15 16 -25 0 -18 -11 -19 -219 -19 -221 0
-247 4 -221 35 10 12 49 15 210 15 109 0 205 -3 214 -6z m11 -254 l0 -25 -216
-3 c-194 -2 -217 -1 -223 14 -16 41 6 45 228 42 l211 -3 0 -25z m3 -224 c2
-10 -2 -22 -10 -27 -7 -5 -104 -9 -214 -9 -166 0 -204 3 -214 15 -7 8 -10 22
-6 30 5 13 35 15 223 13 204 -3 218 -4 221 -22z m2 -235 c0 -10 -7 -22 -16
-25 -9 -3 -105 -6 -214 -6 -161 0 -200 3 -210 15 -26 31 0 35 221 35 208 0
219 -1 219 -19z m-16 -207 c9 -3 16 -17 16 -30 l0 -24 -220 0 c-188 0 -221 2
-226 15 -4 8 -1 22 6 30 10 12 47 15 210 15 109 0 205 -3 214 -6z m4 -256 l3
-28 -220 0 c-229 0 -240 2 -219 43 8 16 27 17 221 15 l212 -3 3 -27z m7 -238
l0 -25 -228 -3 c-196 -2 -228 0 -233 13 -4 8 -4 22 0 30 5 13 37 15 233 13
l228 -3 0 -25z m23 -202 c17 -17 15 -45 -4 -52 -9 -3 -121 -6 -249 -6 -128 0
-240 3 -249 6 -19 7 -21 35 -4 52 17 17 489 17 506 0z m43 -228 c21 -12 26
-45 7 -56 -6 -4 -124 -11 -262 -16 -138 -4 -278 -9 -310 -11 -65 -2 -79 10
-48 41 15 15 44 22 148 31 225 20 438 25 465 11z m70 -251 c7 -14 8 -24 1 -31
-6 -6 -68 -14 -139 -19 -173 -11 -339 -26 -511 -46 -78 -9 -145 -13 -149 -10
-11 12 16 57 39 66 59 22 432 56 645 60 95 1 103 -1 114 -20z m64 -225 c38
-38 21 -42 -270 -69 -243 -22 -431 -52 -702 -112 -16 -4 -23 -1 -23 10 0 9 10
27 23 41 44 49 364 105 802 139 110 9 154 7 170 -9z m115 -243 c5 -11 7 -22 3
-24 -5 -3 -51 -8 -103 -11 -345 -25 -704 -95 -1033 -203 -76 -24 -141 -42
-144 -39 -13 12 9 57 35 70 100 52 401 132 643 170 132 21 208 31 409 49 19 2
67 5 107 5 62 2 74 -1 83 -17z"/>
</g>
</svg>
